:FULLY-SPECIFIED
:FORCE-ALL-JOINTS-BE-3DOF
:DEGREES
577
root 5.68174 16.2267 -4.67639 -49.1176 79.6629 -56.2874
lfemur -18.348 15.1952 -24.3326
ltibia 40.6558 0 0
lfoot -32.9149 16.7561 0
ltoes 9.86587 0 0
rfemur -55.7445 -11.0793 23.7071
rtibia 56.9045 0 0
rfoot 7.68542 28.0115 0
rtoes -13.7028 0 0
lowerback 4.78097 -2.38747 -4.69136
upperback 0.803562 -3.31279 1.76209
thorax -1.47426 -1.62931 4.58095
lowerneck -8.14784 -11.3332 -2.1093
upperneck 14.783 -15.8437 5.04097
head 6.34626 -7.39946 0.666729
lclavicle -3.89822e-14 -7.47173e-15 0
lhumerus -31.2148 -39.7632 104.256
lradius 55.8578 0 0
lwrist 17.1922 0 0
lhand -5.56733 0.501433 0
lfingers 7.12502 0 0
lthumb 20.2262 29.2336 0
rclavicle -3.89822e-14 -7.47173e-15 0
rhumerus 14.6676 18.5663 -78.4668
rradius 122.798 0 0
rwrist -46.1754 0 0
rhand -15.7196 -18.1115 0
rfingers 7.12502 0 0
rthumb 10.4103 -766.985 0
578
root 5.6798 16.2307 -4.6625 -47.0603 79.1487 -54.2572
lfemur -18.2997 15.6809 -24.2788
ltibia 40.5723 0 0
lfoot -32.9361 17.0931 0
ltoes 9.87098 0 0
rfemur -55.612 -11.3905 23.969
rtibia 56.8434 0 0
rfoot 7.65846 28.1991 0
rtoes -13.4944 0 0
lowerback 4.72821 -2.41148 -4.74043
upperback 0.798092 -3.3478 1.74074
thorax -1.44502 -1.64718 4.58771
lowerneck -8.12864 -11.2967 -2.0712
upperneck 14.8033 -15.8065 5.07781
head 6.35053 -7.37673 0.674324
lclavicle -3.97216e-14 -7.65937e-15 0
lhumerus -30.9128 -39.7711 103.884
lradius 55.8333 0 0
lwrist 17.4036 0 0
lhand -5.83912 0.507654 0
lfingers 7.12502 0 0
lthumb 19.9657 29.2737 0
rclavicle -3.97216e-14 -7.65937e-15 0
rhumerus 15.1503 18.0316 -78.3604
rradius 122.873 0 0
rwrist -46.8062 0 0
rhand -16.2036 -18.2534 0
rfingers 7.12502 0 0
rthumb 9.94567 -767.176 0
579
root 5.67786 16.2351 -4.64763 -45.0241 78.6234 -52.2474
lfemur -18.2542 16.1577 -24.2215
ltibia 40.4955 0 0
lfoot -32.9528 17.4232 0
ltoes 9.87846 0 0
rfemur -55.4778 -11.6964 24.2252
rtibia 56.7829 0 0
rfoot 7.63287 28.3791 0
rtoes -13.2841 0 0
lowerback 4.67629 -2.43501 -4.78852
upperback 0.792475 -3.38215 1.71927
thorax -1.41652 -1.66471 4.59378
lowerneck -8.10953 -11.26 -2.03351
upperneck 14.8216 -15.7687 5.1141
head 6.35421 -7.35385 0.681899
lclavicle -4.04482e-14 -7.84382e-15 0
lhumerus -30.6105 -39.7767 103.506
lradius 55.8087 0 0
lwrist 17.6133 0 0
lhand -6.10894 0.513462 0
lfingers 7.12502 0 0
lthumb 19.707 29.313 0
rclavicle -4.04482e-14 -7.84382e-15 0
rhumerus 15.6229 17.5012 -78.2494
rradius 122.944 0 0
rwrist -47.4241 0 0
rhand -16.683 -18.3959 0
rfingers 7.12502 0 0
rthumb 9.48548 -767.367 0
580
root 5.67594 16.2401 -4.63174 -43.0102 78.087 -50.2592
lfemur -18.2117 16.6251 -24.1607
ltibia 40.4256 0 0
lfoot -32.9652 17.7459 0
ltoes 9.88841 0 0
rfemur -55.3421 -11.9968 24.4753
rtibia 56.723 0 0
rfoot 7.60871 28.5514 0
rtoes -13.0719 0 0
lowerback 4.62526 -2.45805 -4.8356
upperback 0.786708 -3.41582 1.6977
thorax -1.38879 -1.6819 4.59917
lowerneck -8.09053 -11.2231 -1.99627
upperneck 14.8381 -15.7306 5.14982
head 6.35728 -7.33084 0.689454
lclavicle -4.11614e-14 -8.02492e-15 0
lhumerus -30.3079 -39.78 103.124
lradius 55.7841 0 0
lwrist 17.8212 0 0
lhand -6.37659 0.518835 0
lfingers 7.12502 0 0
lthumb 19.4504 29.3516 0
rclavicle -4.11614e-14 -8.02492e-15 0
rhumerus 16.0849 16.9755 -78.1335
rradius 123.012 0 0
rwrist -48.0288 0 0
rhand -17.1575 -18.5387 0
rfingers 7.12502 0 0
rthumb 9.03 -767.559 0
581
root 5.67403 16.2456 -4.6148 -41.02 77.5395 -48.294
lfemur -18.1722 17.0828 -24.0962
ltibia 40.3629 0 0
lfoot -32.9729 18.0611 0
ltoes 9.90091 0 0
rfemur -55.2048 -12.2915 24.7193
rtibia 56.6637 0 0
rfoot 7.58603 28.7158 0
rtoes -12.8581 0 0
lowerback 4.57515 -2.4806 -4.88161
upperback 0.780785 -3.44879 1.67604
thorax -1.36186 -1.69873 4.60385
lowerneck -8.07165 -11.1861 -1.95952
upperneck 14.8526 -15.6919 5.18494
head 6.35974 -7.30773 0.696989
lclavicle -4.18605e-14 -8.20254e-15 0
lhumerus -30.0051 -39.7809 102.736
lradius 55.7596 0 0
lwrist 18.0271 0 0
lhand -6.64193 0.523754 0
lfingers 7.12502 0 0
lthumb 19.196 29.3894 0
rclavicle -4.18605e-14 -8.20254e-15 0
rhumerus 16.5361 16.4546 -78.0127
rradius 123.075 0 0
rwrist -48.6197 0 0
rhand -17.6268 -18.682 0
rfingers 7.12502 0 0
rthumb 8.57954 -767.749 0
582
root 5.67215 16.2516 -4.59678 -39.055 76.981 -46.3533
lfemur -18.1359 17.5304 -24.0281
ltibia 40.3074 0 0
lfoot -32.976 18.3685 0
ltoes 9.91605 0 0
rfemur -55.0661 -12.5801 24.9567
rtibia 56.6049 0 0
rfoot 7.56489 28.8721 0
rtoes -12.6426 0 0
lowerback 4.526 -2.50265 -4.92653
upperback 0.774704 -3.48107 1.65429
thorax -1.33576 -1.71521 4.60783
lowerneck -8.05291 -11.149 -1.92331
upperneck 14.8651 -15.6529 5.21946
head 6.36157 -7.28452 0.704504
lclavicle -4.2545e-14 -8.37654e-15 0
lhumerus -29.7021 -39.7794 102.343
lradius 55.7352 0 0
lwrist 18.2309 0 0
lhand -6.90477 0.528198 0
lfingers 7.12502 0 0
lthumb 18.944 29.4263 0
rclavicle -4.2545e-14 -8.37654e-15 0
rhumerus 16.9761 15.939 -77.8867
rradius 123.135 0 0
rwrist -49.1964 0 0
rhand -18.0905 -18.8256 0
rfingers 7.12502 0 0
rthumb 8.13437 -767.94 0
583
root 5.67029 16.2581 -4.57762 -37.1165 76.4117 -44.4383
lfemur -18.1028 17.9674 -23.9562
ltibia 40.2595 0 0
lfoot -32.9744 18.6676 0
ltoes 9.9339 0 0
rfemur -54.9259 -12.8624 25.1873
rtibia 56.5468 0 0
rfoot 7.54532 29.0201 0
rtoes -12.4257 0 0
lowerback 4.47786 -2.52418 -4.97033
upperback 0.768461 -3.51263 1.63248
thorax -1.31053 -1.73133 4.61109
lowerneck -8.03432 -11.1117 -1.88767
upperneck 14.8756 -15.6135 5.25335
head 6.36276 -7.26125 0.711997
lclavicle -4.32142e-14 -8.54677e-15 0
lhumerus -29.3991 -39.7755 101.946
lradius 55.7108 0 0
lwrist 18.4326 0 0
lhand -7.16494 0.532147 0
lfingers 7.12502 0 0
lthumb 18.6945 29.4622 0
rclavicle -4.32142e-14 -8.54677e-15 0
rhumerus 17.4045 15.4289 -77.7556
rradius 123.191 0 0
rwrist -49.7583 0 0
rhand -18.5485 -18.9696 0
rfingers 7.12502 0 0
rthumb 7.69478 -768.131 0
584
root 5.66846 16.2652 -4.55731 -35.2059 75.8315 -42.5504
lfemur -18.0729 18.3935 -23.8805
ltibia 40.2194 0 0
lfoot -32.968 18.9582 0
ltoes 9.95456 0 0
rfemur -54.7842 -13.138 25.4109
rtibia 56.4891 0 0
rfoot 7.52739 29.1595 0
rtoes -12.2074 0 0
lowerback 4.43076 -2.5452 -5.01296
upperback 0.762052 -3.54346 1.6106
thorax -1.28619 -1.74707 4.61362
lowerneck -8.01588 -11.0745 -1.85265
upperneck 14.8841 -15.5737 5.28658
head 6.3633 -7.23793 0.71947
lclavicle -4.38675e-14 -8.71309e-15 0
lhumerus -29.096 -39.7691 101.543
lradius 55.6864 0 0
lwrist 18.6319 0 0
lhand -7.42229 0.53558 0
lfingers 7.12502 0 0
lthumb 18.4477 29.4973 0
rclavicle -4.38675e-14 -8.71309e-15 0
rhumerus 17.8211 14.9247 -77.619
rradius 123.242 0 0
rwrist -50.3051 0 0
rhand -19.0003 -19.1139 0
rfingers 7.12502 0 0
rthumb 7.26106 -768.32 0
585
root 5.66665 16.2728 -4.53579 -33.3246 75.2406 -40.691
lfemur -18.0465 18.8083 -23.8011
ltibia 40.1872 0 0
lfoot -32.9567 19.24 0
ltoes 9.9781 0 0
rfemur -54.6412 -13.4068 25.6272
rtibia 56.432 0 0
rfoot 7.51115 29.2902 0
rtoes -11.9879 0 0
lowerback 4.38475 -2.56569 -5.0544
upperback 0.755472 -3.57355 1.58868
thorax -1.26277 -1.76244 4.61542
lowerneck -7.99763 -11.0372 -1.81829
upperneck 14.8904 -15.5336 5.31914
head 6.36318 -7.21457 0.726922
lclavicle -4.45042e-14 -8.87536e-15 0
lhumerus -28.793 -39.7603 101.136
lradius 55.6622 0 0
lwrist 18.8288 0 0
lhand -7.67662 0.538477 0
lfingers 7.12502 0 0
lthumb 18.2038 29.5313 0
rclavicle -4.45042e-14 -8.87536e-15 0
rhumerus 18.2255 14.4267 -77.477
rradius 123.29 0 0
rwrist -50.8362 0 0
rhand -19.4457 -19.2584 0
rfingers 7.12502 0 0
rthumb 6.83348 -768.51 0
586
root 5.66488 16.281 -4.51305 -31.4739 74.639 -38.8615
lfemur -18.0235 19.2113 -23.7177
ltibia 40.1632 0 0
lfoot -32.9404 19.5127 0
ltoes 10.0046 0 0
rfemur -54.4968 -13.6684 25.836
rtibia 56.3754 0 0
rfoot 7.49665 29.4119 0
rtoes -11.7673 0 0
lowerback 4.33987 -2.58565 -5.09459
upperback 0.748718 -3.60289 1.56673
thorax -1.24032 -1.77743 4.61647
lowerneck -7.97955 -10.9999 -1.78464
upperneck 14.8946 -15.4933 5.35101
head 6.36239 -7.19121 0.734352
lclavicle -4.51238e-14 -9.03344e-15 0
lhumerus -28.4901 -39.749 100.723
lradius 55.6381 0 0
lwrist 19.0231 0 0
lhand -7.92779 0.540817 0
lfingers 7.12502 0 0
lthumb 17.963 29.5643 0
rclavicle -4.51238e-14 -9.03344e-15 0
rhumerus 18.6173 13.9352 -77.3294
rradius 123.334 0 0
rwrist -51.3512 0 0
rhand -19.8844 -19.4032 0
rfingers 7.12502 0 0
rthumb 6.41234 -768.699 0
587
root 5.66314 16.2898 -4.48902 -29.6552 74.0268 -37.0631
lfemur -18.004 19.6022 -23.6304
ltibia 40.1476 0 0
lfoot -32.919 19.776 0
ltoes 10.0342 0 0
rfemur -54.3511 -13.9226 26.0369
rtibia 56.3194 0 0
rfoot 7.48394 29.5245 0
rtoes -11.5457 0 0
lowerback 4.29616 -2.60506 -5.13352
upperback 0.741786 -3.63146 1.54474
thorax -1.21886 -1.79202 4.61678
lowerneck -7.96168 -10.9627 -1.75172
upperneck 14.8966 -15.4526 5.38217
head 6.36092 -7.16785 0.74176
lclavicle -4.57257e-14 -9.18717e-15 0
lhumerus -28.1873 -39.7352 100.305
lradius 55.6141 0 0
lwrist 19.2147 0 0
lhand -8.17562 0.54258 0
lfingers 7.12502 0 0
lthumb 17.7253 29.5962 0
rclavicle -4.57257e-14 -9.18717e-15 0
rhumerus 18.9963 13.4505 -77.1761
rradius 123.374 0 0
rwrist -51.8496 0 0
rhand -20.3161 -19.5481 0
rfingers 7.12502 0 0
rthumb 5.99792 -768.887 0
588
root 5.66144 16.2992 -4.4637 -27.87 73.4041 -35.2973
lfemur -17.988 19.9806 -23.5391
ltibia 40.1407 0 0
lfoot -32.8925 20.0295 0
ltoes 10.0669 0 0
rfemur -54.2041 -14.169 26.2299
rtibia 56.2638 0 0
rfoot 7.47307 29.6276 0
rtoes -11.3232 0 0
lowerback 4.25366 -2.62392 -5.17113
upperback 0.734673 -3.65926 1.52275
thorax -1.19842 -1.80621 4.61632
lowerneck -7.94402 -10.9255 -1.7196
upperneck 14.8963 -15.4118 5.41259
head 6.35876 -7.14452 0.749146
lclavicle -4.63091e-14 -9.33643e-15 0
lhumerus -27.8848 -39.7188 99.8826
lradius 55.5903 0 0
lwrist 19.4035 0 0
lhand -8.41993 0.543746 0
lfingers 7.12502 0 0
lthumb 17.4911 29.627 0
rclavicle -4.63091e-14 -9.33643e-15 0
rhumerus 19.3621 12.9729 -77.0168
rradius 123.41 0 0
rwrist -52.331 0 0
rhand -20.7405 -19.6933 0
rfingers 7.12502 0 0
rthumb 5.59051 -769.075 0
